<svg width="1440" height="706" viewBox="0 0 1440 706" fill="none" xmlns="http://www.w3.org/2000/svg">
<path fill-rule="evenodd" clip-rule="evenodd" d="M702.486 665.911H84C86.6836 496.17 155.843 342.59 266.61 230.035L702.486 665.911ZM714.87 663.786L273.865 222.78C387.553 110.899 543.095 41.4657 714.87 40.1092V663.786ZM725.13 40.1092V663.786L1166.14 222.78C1052.45 110.899 896.905 41.4657 725.13 40.1092ZM737.514 665.911L1173.39 230.034C1284.16 342.59 1353.32 496.17 1356 665.911H737.514Z" fill="#0066FF"/>
<path d="M873.442 448.558L869.907 452.093L869.907 452.093L873.442 448.558ZM933.464 605.536C935.417 607.488 938.583 607.488 940.536 605.536L972.355 573.716C974.308 571.763 974.308 568.597 972.355 566.645C970.403 564.692 967.237 564.692 965.284 566.645L937 594.929L908.716 566.645C906.763 564.692 903.597 564.692 901.645 566.645C899.692 568.597 899.692 571.763 901.645 573.716L933.464 605.536ZM566.558 448.558L570.093 452.093L570.093 452.093L566.558 448.558ZM720 390C778.544 390 831.537 413.723 869.907 452.093L876.978 445.022C836.809 404.854 781.302 380 720 380V390ZM869.907 452.093C908.277 490.463 932 543.456 932 602H942C942 540.698 917.146 485.191 876.978 445.022L869.907 452.093ZM508 602C508 543.456 531.723 490.463 570.093 452.093L563.022 445.022C522.854 485.191 498 540.698 498 602H508ZM570.093 452.093C608.463 413.723 661.456 390 720 390V380C658.698 380 603.191 404.854 563.022 445.022L570.093 452.093Z" fill="white"/>
<path d="M246.552 529V521.296H260.376V485.584H259.728L248.784 498.544L242.88 493.576L255.336 478.744H269.664V521.296H281.184V529H246.552ZM293.9 529.792C291.932 529.792 290.468 529.312 289.508 528.352C288.596 527.344 288.14 526.072 288.14 524.536V523.24C288.14 521.704 288.596 520.432 289.508 519.424C290.468 518.416 291.932 517.912 293.9 517.912C295.916 517.912 297.38 518.416 298.292 519.424C299.204 520.432 299.66 521.704 299.66 523.24V524.536C299.66 526.072 299.204 527.344 298.292 528.352C297.38 529.312 295.916 529.792 293.9 529.792Z" fill="white"/>
<path d="M1066.06 529V519.28H1043.3V511.216L1063.32 478.744H1075.06V511.936H1081.61V519.28H1075.06V529H1066.06ZM1051.08 511.936H1066.06V487.96H1065.48L1051.08 511.936ZM1094.9 529.792C1092.93 529.792 1091.47 529.312 1090.51 528.352C1089.6 527.344 1089.14 526.072 1089.14 524.536V523.24C1089.14 521.704 1089.6 520.432 1090.51 519.424C1091.47 518.416 1092.93 517.912 1094.9 517.912C1096.92 517.912 1098.38 518.416 1099.29 519.424C1100.2 520.432 1100.66 521.704 1100.66 523.24V524.536C1100.66 526.072 1100.2 527.344 1099.29 528.352C1098.38 529.312 1096.92 529.792 1094.9 529.792Z" fill="white"/>
<path d="M851.864 197.048C854.744 197.048 856.856 196.472 858.2 195.32C859.592 194.12 860.288 192.608 860.288 190.784V190.28C860.288 188.216 859.616 186.608 858.272 185.456C856.976 184.256 855.176 183.656 852.872 183.656C850.664 183.656 848.696 184.184 846.968 185.24C845.288 186.296 843.824 187.784 842.576 189.704L836.528 184.232C837.392 183.08 838.328 182 839.336 180.992C840.392 179.936 841.592 179.048 842.936 178.328C844.28 177.56 845.792 176.96 847.472 176.528C849.152 176.096 851.048 175.88 853.16 175.88C855.704 175.88 858.008 176.192 860.072 176.816C862.184 177.392 863.984 178.256 865.472 179.408C867.008 180.56 868.184 181.952 869 183.584C869.816 185.168 870.224 186.968 870.224 188.984C870.224 190.616 869.96 192.08 869.432 193.376C868.952 194.672 868.256 195.8 867.344 196.76C866.48 197.72 865.448 198.512 864.248 199.136C863.096 199.712 861.872 200.144 860.576 200.432V200.864C862.016 201.152 863.384 201.608 864.68 202.232C865.976 202.856 867.08 203.696 867.992 204.752C868.952 205.76 869.696 206.96 870.224 208.352C870.8 209.744 871.088 211.328 871.088 213.104C871.088 215.312 870.632 217.328 869.72 219.152C868.856 220.976 867.608 222.536 865.976 223.832C864.344 225.128 862.4 226.136 860.144 226.856C857.888 227.528 855.368 227.864 852.584 227.864C850.136 227.864 847.976 227.6 846.104 227.072C844.232 226.592 842.576 225.92 841.136 225.056C839.744 224.192 838.52 223.208 837.464 222.104C836.408 220.952 835.496 219.752 834.728 218.504L841.712 213.176C842.288 214.184 842.912 215.12 843.584 215.984C844.256 216.8 845.024 217.52 845.888 218.144C846.752 218.768 847.736 219.248 848.84 219.584C849.944 219.92 851.192 220.088 852.584 220.088C855.368 220.088 857.504 219.416 858.992 218.072C860.48 216.728 861.224 214.88 861.224 212.528V212.024C861.224 209.72 860.408 207.968 858.776 206.768C857.192 205.568 854.888 204.968 851.864 204.968H846.896V197.048H851.864ZM886.9 227.792C884.932 227.792 883.468 227.312 882.508 226.352C881.596 225.344 881.14 224.072 881.14 222.536V221.24C881.14 219.704 881.596 218.432 882.508 217.424C883.468 216.416 884.932 215.912 886.9 215.912C888.916 215.912 890.38 216.416 891.292 217.424C892.204 218.432 892.66 219.704 892.66 221.24V222.536C892.66 224.072 892.204 225.344 891.292 226.352C890.38 227.312 888.916 227.792 886.9 227.792Z" fill="white"/>
<path d="M418.312 227H383.464V218.216L399.232 204.392C401.92 202.04 403.888 199.928 405.136 198.056C406.384 196.136 407.008 194.072 407.008 191.864V190.928C407.008 188.72 406.288 187.04 404.848 185.888C403.408 184.688 401.656 184.088 399.592 184.088C397 184.088 395.032 184.832 393.688 186.32C392.344 187.76 391.384 189.512 390.808 191.576L382.6 188.408C383.128 186.728 383.872 185.144 384.832 183.656C385.792 182.12 386.992 180.776 388.432 179.624C389.92 178.472 391.648 177.56 393.616 176.888C395.584 176.216 397.84 175.88 400.384 175.88C403.024 175.88 405.376 176.264 407.44 177.032C409.504 177.752 411.232 178.784 412.624 180.128C414.064 181.472 415.144 183.056 415.864 184.88C416.632 186.704 417.016 188.696 417.016 190.856C417.016 192.968 416.68 194.888 416.008 196.616C415.336 198.344 414.424 200 413.272 201.584C412.12 203.12 410.776 204.608 409.24 206.048C407.704 207.44 406.072 208.856 404.344 210.296L393.76 219.008H418.312V227ZM432.9 227.792C430.932 227.792 429.468 227.312 428.508 226.352C427.596 225.344 427.14 224.072 427.14 222.536V221.24C427.14 219.704 427.596 218.432 428.508 217.424C429.468 216.416 430.932 215.912 432.9 215.912C434.916 215.912 436.38 216.416 437.292 217.424C438.204 218.432 438.66 219.704 438.66 221.24V222.536C438.66 224.072 438.204 225.344 437.292 226.352C436.38 227.312 434.916 227.792 432.9 227.792Z" fill="white"/>
<path d="M242.624 542.664H250.752C252.203 542.664 253.515 542.899 254.688 543.368C255.883 543.837 256.896 544.541 257.728 545.48C258.581 546.397 259.232 547.56 259.68 548.968C260.149 550.355 260.384 551.976 260.384 553.832C260.384 555.688 260.149 557.32 259.68 558.728C259.232 560.115 258.581 561.277 257.728 562.216C256.896 563.133 255.883 563.827 254.688 564.296C253.515 564.765 252.203 565 250.752 565H242.624V542.664ZM250.752 561.256C252.331 561.256 253.579 560.797 254.496 559.88C255.435 558.941 255.904 557.512 255.904 555.592V552.072C255.904 550.152 255.435 548.733 254.496 547.816C253.579 546.877 252.331 546.408 250.752 546.408H246.848V561.256H250.752ZM271.183 565.384C269.945 565.384 268.836 565.181 267.855 564.776C266.895 564.349 266.073 563.763 265.391 563.016C264.729 562.248 264.217 561.331 263.855 560.264C263.492 559.176 263.311 557.96 263.311 556.616C263.311 555.293 263.481 554.099 263.823 553.032C264.185 551.965 264.697 551.059 265.359 550.312C266.02 549.544 266.831 548.957 267.791 548.552C268.751 548.125 269.839 547.912 271.055 547.912C272.356 547.912 273.487 548.136 274.447 548.584C275.407 549.032 276.196 549.64 276.815 550.408C277.433 551.176 277.892 552.072 278.191 553.096C278.511 554.099 278.671 555.176 278.671 556.328V557.672H267.567V558.088C267.567 559.304 267.908 560.285 268.591 561.032C269.273 561.757 270.287 562.12 271.631 562.12C272.655 562.12 273.487 561.907 274.127 561.48C274.788 561.053 275.375 560.509 275.887 559.848L278.095 562.312C277.412 563.272 276.473 564.029 275.279 564.584C274.105 565.117 272.74 565.384 271.183 565.384ZM271.119 550.984C270.031 550.984 269.167 551.347 268.527 552.072C267.887 552.797 267.567 553.736 267.567 554.888V555.144H274.415V554.856C274.415 553.704 274.127 552.776 273.551 552.072C272.996 551.347 272.185 550.984 271.119 550.984ZM282.274 548.296H286.37V551.048H286.498C286.797 550.088 287.362 549.331 288.194 548.776C289.026 548.2 289.997 547.912 291.106 547.912C293.24 547.912 294.861 548.669 295.97 550.184C297.101 551.677 297.666 553.821 297.666 556.616C297.666 559.432 297.101 561.597 295.97 563.112C294.861 564.627 293.24 565.384 291.106 565.384C289.997 565.384 289.026 565.096 288.194 564.52C287.384 563.944 286.818 563.176 286.498 562.216H286.37V571.4H282.274V548.296ZM289.794 561.992C290.861 561.992 291.725 561.64 292.386 560.936C293.048 560.232 293.378 559.283 293.378 558.088V555.208C293.378 554.013 293.048 553.064 292.386 552.36C291.725 551.635 290.861 551.272 289.794 551.272C288.813 551.272 287.992 551.517 287.33 552.008C286.69 552.499 286.37 553.149 286.37 553.96V559.272C286.37 560.147 286.69 560.819 287.33 561.288C287.992 561.757 288.813 561.992 289.794 561.992ZM308.214 565.384C306.976 565.384 305.867 565.181 304.886 564.776C303.926 564.349 303.104 563.763 302.422 563.016C301.76 562.248 301.248 561.331 300.886 560.264C300.523 559.176 300.342 557.96 300.342 556.616C300.342 555.293 300.512 554.099 300.854 553.032C301.216 551.965 301.728 551.059 302.39 550.312C303.051 549.544 303.862 548.957 304.822 548.552C305.782 548.125 306.87 547.912 308.086 547.912C309.387 547.912 310.518 548.136 311.478 548.584C312.438 549.032 313.227 549.64 313.846 550.408C314.464 551.176 314.923 552.072 315.222 553.096C315.542 554.099 315.702 555.176 315.702 556.328V557.672H304.598V558.088C304.598 559.304 304.939 560.285 305.622 561.032C306.304 561.757 307.318 562.12 308.662 562.12C309.686 562.12 310.518 561.907 311.158 561.48C311.819 561.053 312.406 560.509 312.918 559.848L315.126 562.312C314.443 563.272 313.504 564.029 312.31 564.584C311.136 565.117 309.771 565.384 308.214 565.384ZM308.15 550.984C307.062 550.984 306.198 551.347 305.558 552.072C304.918 552.797 304.598 553.736 304.598 554.888V555.144H311.446V554.856C311.446 553.704 311.158 552.776 310.582 552.072C310.027 551.347 309.216 550.984 308.15 550.984ZM319.306 565V548.296H323.402V551.08H323.562C323.903 550.184 324.436 549.437 325.161 548.84C325.908 548.221 326.932 547.912 328.234 547.912C329.962 547.912 331.284 548.477 332.202 549.608C333.119 550.739 333.578 552.349 333.578 554.44V565H329.482V554.856C329.482 553.661 329.268 552.765 328.842 552.168C328.415 551.571 327.711 551.272 326.73 551.272C326.303 551.272 325.887 551.336 325.482 551.464C325.098 551.571 324.746 551.741 324.426 551.976C324.127 552.189 323.882 552.467 323.69 552.808C323.498 553.128 323.402 553.512 323.402 553.96V565H319.306ZM348.486 562.216H348.326C348.027 563.176 347.462 563.944 346.63 564.52C345.798 565.096 344.827 565.384 343.718 565.384C341.606 565.384 339.985 564.627 338.854 563.112C337.745 561.597 337.19 559.432 337.19 556.616C337.19 553.821 337.745 551.677 338.854 550.184C339.985 548.669 341.606 547.912 343.718 547.912C344.827 547.912 345.798 548.2 346.63 548.776C347.462 549.331 348.027 550.088 348.326 551.048H348.486V541.32H352.582V565H348.486V562.216ZM345.03 561.992C346.011 561.992 346.833 561.757 347.494 561.288C348.155 560.819 348.486 560.147 348.486 559.272V553.96C348.486 553.149 348.155 552.499 347.494 552.008C346.833 551.517 346.011 551.272 345.03 551.272C343.963 551.272 343.099 551.635 342.438 552.36C341.798 553.064 341.478 554.013 341.478 555.208V558.088C341.478 559.283 341.798 560.232 342.438 560.936C343.099 561.64 343.963 561.992 345.03 561.992ZM364.058 565.384C362.82 565.384 361.711 565.181 360.73 564.776C359.77 564.349 358.948 563.763 358.266 563.016C357.604 562.248 357.092 561.331 356.73 560.264C356.367 559.176 356.186 557.96 356.186 556.616C356.186 555.293 356.356 554.099 356.698 553.032C357.06 551.965 357.572 551.059 358.234 550.312C358.895 549.544 359.706 548.957 360.666 548.552C361.626 548.125 362.714 547.912 363.93 547.912C365.231 547.912 366.362 548.136 367.322 548.584C368.282 549.032 369.071 549.64 369.69 550.408C370.308 551.176 370.767 552.072 371.066 553.096C371.386 554.099 371.546 555.176 371.546 556.328V557.672H360.442V558.088C360.442 559.304 360.783 560.285 361.466 561.032C362.148 561.757 363.162 562.12 364.506 562.12C365.53 562.12 366.362 561.907 367.002 561.48C367.663 561.053 368.25 560.509 368.762 559.848L370.97 562.312C370.287 563.272 369.348 564.029 368.154 564.584C366.98 565.117 365.615 565.384 364.058 565.384ZM363.994 550.984C362.906 550.984 362.042 551.347 361.402 552.072C360.762 552.797 360.442 553.736 360.442 554.888V555.144H367.29V554.856C367.29 553.704 367.002 552.776 366.426 552.072C365.871 551.347 365.06 550.984 363.994 550.984ZM375.149 565V548.296H379.245V551.08H379.405C379.747 550.184 380.28 549.437 381.005 548.84C381.752 548.221 382.776 547.912 384.077 547.912C385.805 547.912 387.128 548.477 388.045 549.608C388.963 550.739 389.421 552.349 389.421 554.44V565H385.325V554.856C385.325 553.661 385.112 552.765 384.685 552.168C384.259 551.571 383.555 551.272 382.573 551.272C382.147 551.272 381.731 551.336 381.325 551.464C380.941 551.571 380.589 551.741 380.269 551.976C379.971 552.189 379.725 552.467 379.533 552.808C379.341 553.128 379.245 553.512 379.245 553.96V565H375.149ZM400.554 565.384C399.316 565.384 398.218 565.181 397.258 564.776C396.298 564.371 395.487 563.784 394.826 563.016C394.186 562.248 393.695 561.331 393.354 560.264C393.012 559.176 392.842 557.96 392.842 556.616C392.842 555.272 393.012 554.067 393.354 553C393.695 551.933 394.186 551.027 394.826 550.28C395.487 549.512 396.298 548.925 397.258 548.52C398.218 548.115 399.316 547.912 400.554 547.912C402.239 547.912 403.626 548.285 404.714 549.032C405.823 549.779 406.623 550.813 407.114 552.136L403.754 553.64C403.562 552.936 403.199 552.36 402.666 551.912C402.154 551.443 401.45 551.208 400.554 551.208C399.402 551.208 398.538 551.571 397.962 552.296C397.407 553.021 397.13 553.971 397.13 555.144V558.184C397.13 559.357 397.407 560.307 397.962 561.032C398.538 561.736 399.402 562.088 400.554 562.088C401.535 562.088 402.292 561.843 402.826 561.352C403.359 560.84 403.775 560.211 404.074 559.464L407.21 560.968C406.655 562.44 405.812 563.549 404.682 564.296C403.551 565.021 402.175 565.384 400.554 565.384ZM420.608 548.296H424.448L417.728 567.976C417.515 568.573 417.269 569.085 416.992 569.512C416.736 569.96 416.427 570.323 416.064 570.6C415.701 570.877 415.264 571.08 414.752 571.208C414.24 571.336 413.643 571.4 412.96 571.4H410.496V568.136H413.504L414.272 565.8L408.288 548.296H412.352L415.264 557.128L416.352 561.352H416.544L417.696 557.128L420.608 548.296ZM254.656 607C253.76 607 253.045 606.744 252.512 606.232C252 605.699 251.68 604.995 251.552 604.12H251.36C251.083 605.208 250.517 606.029 249.664 606.584C248.811 607.117 247.755 607.384 246.496 607.384C244.789 607.384 243.477 606.936 242.56 606.04C241.643 605.144 241.184 603.949 241.184 602.456C241.184 600.728 241.803 599.448 243.04 598.616C244.277 597.763 246.037 597.336 248.32 597.336H251.168V596.12C251.168 595.181 250.923 594.456 250.432 593.944C249.941 593.432 249.152 593.176 248.064 593.176C247.104 593.176 246.325 593.389 245.728 593.816C245.152 594.221 244.661 594.712 244.256 595.288L241.824 593.112C242.443 592.152 243.264 591.384 244.288 590.808C245.312 590.211 246.667 589.912 248.352 589.912C250.613 589.912 252.331 590.424 253.504 591.448C254.677 592.472 255.264 593.944 255.264 595.864V603.736H256.928V607H254.656ZM247.872 604.408C248.789 604.408 249.568 604.205 250.208 603.8C250.848 603.395 251.168 602.797 251.168 602.008V599.8H248.544C246.411 599.8 245.344 600.483 245.344 601.848V602.392C245.344 603.075 245.557 603.587 245.984 603.928C246.432 604.248 247.061 604.408 247.872 604.408ZM260.243 607V590.296H264.339V593.08H264.499C264.84 592.184 265.374 591.437 266.099 590.84C266.846 590.221 267.87 589.912 269.171 589.912C270.899 589.912 272.222 590.477 273.139 591.608C274.056 592.739 274.515 594.349 274.515 596.44V607H270.419V596.856C270.419 595.661 270.206 594.765 269.779 594.168C269.352 593.571 268.648 593.272 267.667 593.272C267.24 593.272 266.824 593.336 266.419 593.464C266.035 593.571 265.683 593.741 265.363 593.976C265.064 594.189 264.819 594.467 264.627 594.808C264.435 595.128 264.339 595.512 264.339 595.96V607H260.243ZM289.424 604.216H289.264C288.965 605.176 288.4 605.944 287.568 606.52C286.736 607.096 285.765 607.384 284.656 607.384C282.544 607.384 280.922 606.627 279.792 605.112C278.682 603.597 278.128 601.432 278.128 598.616C278.128 595.821 278.682 593.677 279.792 592.184C280.922 590.669 282.544 589.912 284.656 589.912C285.765 589.912 286.736 590.2 287.568 590.776C288.4 591.331 288.965 592.088 289.264 593.048H289.424V583.32H293.52V607H289.424V604.216ZM285.968 603.992C286.949 603.992 287.77 603.757 288.432 603.288C289.093 602.819 289.424 602.147 289.424 601.272V595.96C289.424 595.149 289.093 594.499 288.432 594.008C287.77 593.517 286.949 593.272 285.968 593.272C284.901 593.272 284.037 593.635 283.376 594.36C282.736 595.064 282.416 596.013 282.416 597.208V600.088C282.416 601.283 282.736 602.232 283.376 602.936C284.037 603.64 284.901 603.992 285.968 603.992ZM305.134 607V603.608H308.078V588.056H305.134V584.664H315.278V588.056H312.302V603.608H315.278V607H305.134ZM319.337 607V590.296H323.433V593.08H323.593C323.934 592.184 324.467 591.437 325.193 590.84C325.939 590.221 326.963 589.912 328.265 589.912C329.993 589.912 331.315 590.477 332.233 591.608C333.15 592.739 333.609 594.349 333.609 596.44V607H329.513V596.856C329.513 595.661 329.299 594.765 328.873 594.168C328.446 593.571 327.742 593.272 326.761 593.272C326.334 593.272 325.918 593.336 325.513 593.464C325.129 593.571 324.777 593.741 324.457 593.976C324.158 594.189 323.913 594.467 323.721 594.808C323.529 595.128 323.433 595.512 323.433 595.96V607H319.337ZM344.741 607.384C343.504 607.384 342.405 607.181 341.445 606.776C340.485 606.371 339.675 605.784 339.013 605.016C338.373 604.248 337.883 603.331 337.541 602.264C337.2 601.176 337.029 599.96 337.029 598.616C337.029 597.272 337.2 596.067 337.541 595C337.883 593.933 338.373 593.027 339.013 592.28C339.675 591.512 340.485 590.925 341.445 590.52C342.405 590.115 343.504 589.912 344.741 589.912C346.427 589.912 347.813 590.285 348.901 591.032C350.011 591.779 350.811 592.813 351.301 594.136L347.941 595.64C347.749 594.936 347.387 594.36 346.853 593.912C346.341 593.443 345.637 593.208 344.741 593.208C343.589 593.208 342.725 593.571 342.149 594.296C341.595 595.021 341.317 595.971 341.317 597.144V600.184C341.317 601.357 341.595 602.307 342.149 603.032C342.725 603.736 343.589 604.088 344.741 604.088C345.723 604.088 346.48 603.843 347.013 603.352C347.547 602.84 347.963 602.211 348.261 601.464L351.397 602.968C350.843 604.44 350 605.549 348.869 606.296C347.739 607.021 346.363 607.384 344.741 607.384ZM358.652 607C357.244 607 356.209 606.648 355.548 605.944C354.886 605.24 354.556 604.248 354.556 602.968V583.32H358.652V603.736H360.86V607H358.652ZM373.946 604.216H373.786C373.636 604.643 373.434 605.048 373.178 605.432C372.943 605.795 372.634 606.125 372.25 606.424C371.887 606.723 371.439 606.957 370.906 607.128C370.394 607.299 369.796 607.384 369.114 607.384C367.386 607.384 366.063 606.819 365.146 605.688C364.228 604.557 363.77 602.947 363.77 600.856V590.296H367.866V600.44C367.866 601.592 368.09 602.477 368.538 603.096C368.986 603.693 369.7 603.992 370.682 603.992C371.087 603.992 371.482 603.939 371.866 603.832C372.271 603.725 372.623 603.565 372.922 603.352C373.22 603.117 373.466 602.84 373.658 602.52C373.85 602.179 373.946 601.784 373.946 601.336V590.296H378.042V607H373.946V604.216ZM388.246 607.384C386.646 607.384 385.302 607.117 384.214 606.584C383.126 606.029 382.166 605.272 381.334 604.312L383.83 601.88C384.449 602.584 385.121 603.139 385.846 603.544C386.593 603.949 387.446 604.152 388.406 604.152C389.388 604.152 390.092 603.981 390.518 603.64C390.966 603.299 391.19 602.829 391.19 602.232C391.19 601.741 391.03 601.357 390.71 601.08C390.412 600.781 389.889 600.579 389.142 600.472L387.478 600.248C385.665 600.013 384.278 599.501 383.318 598.712C382.38 597.901 381.91 596.728 381.91 595.192C381.91 594.381 382.06 593.656 382.358 593.016C382.657 592.355 383.084 591.8 383.638 591.352C384.193 590.883 384.854 590.531 385.622 590.296C386.412 590.04 387.286 589.912 388.246 589.912C389.057 589.912 389.772 589.976 390.39 590.104C391.03 590.211 391.606 590.381 392.118 590.616C392.63 590.829 393.1 591.107 393.526 591.448C393.953 591.768 394.369 592.131 394.774 592.536L392.374 594.936C391.884 594.424 391.297 593.997 390.614 593.656C389.932 593.315 389.185 593.144 388.374 593.144C387.478 593.144 386.828 593.304 386.422 593.624C386.038 593.944 385.846 594.36 385.846 594.872C385.846 595.427 386.006 595.853 386.326 596.152C386.668 596.429 387.233 596.632 388.022 596.76L389.718 596.984C393.324 597.496 395.126 599.139 395.126 601.912C395.126 602.723 394.956 603.469 394.614 604.152C394.294 604.813 393.836 605.389 393.238 605.88C392.641 606.349 391.916 606.723 391.062 607C390.23 607.256 389.292 607.384 388.246 607.384ZM400.791 587.864C399.938 587.864 399.319 587.672 398.935 587.288C398.572 586.904 398.391 586.413 398.391 585.816V585.176C398.391 584.579 398.572 584.088 398.935 583.704C399.319 583.32 399.938 583.128 400.791 583.128C401.623 583.128 402.231 583.32 402.615 583.704C402.999 584.088 403.191 584.579 403.191 585.176V585.816C403.191 586.413 402.999 586.904 402.615 587.288C402.231 587.672 401.623 587.864 400.791 587.864ZM398.743 590.296H402.839V607H398.743V590.296ZM414.211 607.384C413.016 607.384 411.939 607.181 410.979 606.776C410.04 606.371 409.229 605.784 408.547 605.016C407.885 604.248 407.373 603.331 407.011 602.264C406.648 601.176 406.467 599.96 406.467 598.616C406.467 597.272 406.648 596.067 407.011 595C407.373 593.933 407.885 593.027 408.547 592.28C409.229 591.512 410.04 590.925 410.979 590.52C411.939 590.115 413.016 589.912 414.211 589.912C415.405 589.912 416.483 590.115 417.443 590.52C418.403 590.925 419.213 591.512 419.875 592.28C420.557 593.027 421.08 593.933 421.443 595C421.805 596.067 421.987 597.272 421.987 598.616C421.987 599.96 421.805 601.176 421.443 602.264C421.08 603.331 420.557 604.248 419.875 605.016C419.213 605.784 418.403 606.371 417.443 606.776C416.483 607.181 415.405 607.384 414.211 607.384ZM414.211 604.088C415.299 604.088 416.152 603.757 416.771 603.096C417.389 602.435 417.699 601.464 417.699 600.184V597.08C417.699 595.821 417.389 594.861 416.771 594.2C416.152 593.539 415.299 593.208 414.211 593.208C413.144 593.208 412.301 593.539 411.683 594.2C411.064 594.861 410.755 595.821 410.755 597.08V600.184C410.755 601.464 411.064 602.435 411.683 603.096C412.301 603.757 413.144 604.088 414.211 604.088ZM425.618 607V590.296H429.714V593.08H429.874C430.215 592.184 430.749 591.437 431.474 590.84C432.221 590.221 433.245 589.912 434.546 589.912C436.274 589.912 437.597 590.477 438.514 591.608C439.431 592.739 439.89 594.349 439.89 596.44V607H435.794V596.856C435.794 595.661 435.581 594.765 435.154 594.168C434.727 593.571 434.023 593.272 433.042 593.272C432.615 593.272 432.199 593.336 431.794 593.464C431.41 593.571 431.058 593.741 430.738 593.976C430.439 594.189 430.194 594.467 430.002 594.808C429.81 595.128 429.714 595.512 429.714 595.96V607H425.618Z" fill="white"/>
<path d="M1047.02 565L1041.83 542.664H1046.06L1048.26 553.384L1049.64 560.232H1049.74L1051.34 553.384L1053.9 542.664H1058.57L1061.13 553.384L1062.7 560.232H1062.79L1064.2 553.384L1066.47 542.664H1070.5L1065.16 565H1060.39L1057.54 553.192L1056.17 547.304H1056.1L1054.66 553.192L1051.82 565H1047.02ZM1079.65 565.384C1078.45 565.384 1077.38 565.181 1076.42 564.776C1075.48 564.371 1074.67 563.784 1073.98 563.016C1073.32 562.248 1072.81 561.331 1072.45 560.264C1072.09 559.176 1071.9 557.96 1071.9 556.616C1071.9 555.272 1072.09 554.067 1072.45 553C1072.81 551.933 1073.32 551.027 1073.98 550.28C1074.67 549.512 1075.48 548.925 1076.42 548.52C1077.38 548.115 1078.45 547.912 1079.65 547.912C1080.84 547.912 1081.92 548.115 1082.88 548.52C1083.84 548.925 1084.65 549.512 1085.31 550.28C1085.99 551.027 1086.52 551.933 1086.88 553C1087.24 554.067 1087.42 555.272 1087.42 556.616C1087.42 557.96 1087.24 559.176 1086.88 560.264C1086.52 561.331 1085.99 562.248 1085.31 563.016C1084.65 563.784 1083.84 564.371 1082.88 564.776C1081.92 565.181 1080.84 565.384 1079.65 565.384ZM1079.65 562.088C1080.74 562.088 1081.59 561.757 1082.21 561.096C1082.83 560.435 1083.14 559.464 1083.14 558.184V555.08C1083.14 553.821 1082.83 552.861 1082.21 552.2C1081.59 551.539 1080.74 551.208 1079.65 551.208C1078.58 551.208 1077.74 551.539 1077.12 552.2C1076.5 552.861 1076.19 553.821 1076.19 555.08V558.184C1076.19 559.464 1076.5 560.435 1077.12 561.096C1077.74 561.757 1078.58 562.088 1079.65 562.088ZM1091.06 565V548.296H1095.15V551.752H1095.31C1095.42 551.304 1095.58 550.877 1095.79 550.472C1096.03 550.045 1096.32 549.672 1096.69 549.352C1097.05 549.032 1097.48 548.776 1097.97 548.584C1098.48 548.392 1099.07 548.296 1099.73 548.296H1100.62V552.168H1099.34C1097.96 552.168 1096.91 552.371 1096.21 552.776C1095.5 553.181 1095.15 553.843 1095.15 554.76V565H1091.06ZM1103.62 541.32H1107.71V555.592H1107.87L1110.08 552.584L1113.83 548.296H1118.47L1112.71 554.76L1119.07 565H1114.21L1109.92 557.512L1107.71 559.912V565H1103.62V541.32ZM1141.44 565C1140.54 565 1139.83 564.744 1139.29 564.232C1138.78 563.699 1138.46 562.995 1138.33 562.12H1138.14C1137.86 563.208 1137.3 564.029 1136.45 564.584C1135.59 565.117 1134.54 565.384 1133.28 565.384C1131.57 565.384 1130.26 564.936 1129.34 564.04C1128.42 563.144 1127.97 561.949 1127.97 560.456C1127.97 558.728 1128.58 557.448 1129.82 556.616C1131.06 555.763 1132.82 555.336 1135.1 555.336H1137.95V554.12C1137.95 553.181 1137.7 552.456 1137.21 551.944C1136.72 551.432 1135.93 551.176 1134.85 551.176C1133.89 551.176 1133.11 551.389 1132.51 551.816C1131.93 552.221 1131.44 552.712 1131.04 553.288L1128.61 551.112C1129.22 550.152 1130.05 549.384 1131.07 548.808C1132.09 548.211 1133.45 547.912 1135.13 547.912C1137.39 547.912 1139.11 548.424 1140.29 549.448C1141.46 550.472 1142.05 551.944 1142.05 553.864V561.736H1143.71V565H1141.44ZM1134.65 562.408C1135.57 562.408 1136.35 562.205 1136.99 561.8C1137.63 561.395 1137.95 560.797 1137.95 560.008V557.8H1135.33C1133.19 557.8 1132.13 558.483 1132.13 559.848V560.392C1132.13 561.075 1132.34 561.587 1132.77 561.928C1133.21 562.248 1133.84 562.408 1134.65 562.408ZM1147.02 565V548.296H1151.12V551.08H1151.28C1151.62 550.184 1152.15 549.437 1152.88 548.84C1153.63 548.221 1154.65 547.912 1155.95 547.912C1157.68 547.912 1159 548.477 1159.92 549.608C1160.84 550.739 1161.3 552.349 1161.3 554.44V565H1157.2V554.856C1157.2 553.661 1156.99 552.765 1156.56 552.168C1156.13 551.571 1155.43 551.272 1154.45 551.272C1154.02 551.272 1153.61 551.336 1153.2 551.464C1152.82 551.571 1152.46 551.741 1152.14 551.976C1151.85 552.189 1151.6 552.467 1151.41 552.808C1151.22 553.128 1151.12 553.512 1151.12 553.96V565H1147.02ZM1176.2 562.216H1176.04C1175.75 563.176 1175.18 563.944 1174.35 564.52C1173.52 565.096 1172.55 565.384 1171.44 565.384C1169.32 565.384 1167.7 564.627 1166.57 563.112C1165.46 561.597 1164.91 559.432 1164.91 556.616C1164.91 553.821 1165.46 551.677 1166.57 550.184C1167.7 548.669 1169.32 547.912 1171.44 547.912C1172.55 547.912 1173.52 548.2 1174.35 548.776C1175.18 549.331 1175.75 550.088 1176.04 551.048H1176.2V541.32H1180.3V565H1176.2V562.216ZM1172.75 561.992C1173.73 561.992 1174.55 561.757 1175.21 561.288C1175.87 560.819 1176.2 560.147 1176.2 559.272V553.96C1176.2 553.149 1175.87 552.499 1175.21 552.008C1174.55 551.517 1173.73 551.272 1172.75 551.272C1171.68 551.272 1170.82 551.635 1170.16 552.36C1169.52 553.064 1169.2 554.013 1169.2 555.208V558.088C1169.2 559.283 1169.52 560.232 1170.16 560.936C1170.82 561.64 1171.68 561.992 1172.75 561.992ZM1043.62 607V584.664H1053.67C1054.7 584.664 1055.61 584.835 1056.42 585.176C1057.26 585.496 1057.96 585.965 1058.54 586.584C1059.11 587.181 1059.55 587.907 1059.85 588.76C1060.15 589.613 1060.3 590.552 1060.3 591.576C1060.3 592.621 1060.15 593.571 1059.85 594.424C1059.55 595.256 1059.11 595.981 1058.54 596.6C1057.96 597.197 1057.26 597.667 1056.42 598.008C1055.61 598.328 1054.7 598.488 1053.67 598.488H1047.85V607H1043.62ZM1047.85 594.84H1053.29C1054.1 594.84 1054.74 594.627 1055.21 594.2C1055.68 593.752 1055.91 593.123 1055.91 592.312V590.84C1055.91 590.029 1055.68 589.411 1055.21 588.984C1054.74 588.557 1054.1 588.344 1053.29 588.344H1047.85V594.84ZM1063.56 607V590.296H1067.65V593.752H1067.81C1067.92 593.304 1068.08 592.877 1068.29 592.472C1068.53 592.045 1068.82 591.672 1069.19 591.352C1069.55 591.032 1069.98 590.776 1070.47 590.584C1070.98 590.392 1071.57 590.296 1072.23 590.296H1073.12V594.168H1071.84C1070.46 594.168 1069.41 594.371 1068.71 594.776C1068 595.181 1067.65 595.843 1067.65 596.76V607H1063.56ZM1082.59 607.384C1081.39 607.384 1080.31 607.181 1079.35 606.776C1078.42 606.371 1077.6 605.784 1076.92 605.016C1076.26 604.248 1075.75 603.331 1075.39 602.264C1075.02 601.176 1074.84 599.96 1074.84 598.616C1074.84 597.272 1075.02 596.067 1075.39 595C1075.75 593.933 1076.26 593.027 1076.92 592.28C1077.6 591.512 1078.42 590.925 1079.35 590.52C1080.31 590.115 1081.39 589.912 1082.59 589.912C1083.78 589.912 1084.86 590.115 1085.82 590.52C1086.78 590.925 1087.59 591.512 1088.25 592.28C1088.93 593.027 1089.46 593.933 1089.82 595C1090.18 596.067 1090.36 597.272 1090.36 598.616C1090.36 599.96 1090.18 601.176 1089.82 602.264C1089.46 603.331 1088.93 604.248 1088.25 605.016C1087.59 605.784 1086.78 606.371 1085.82 606.776C1084.86 607.181 1083.78 607.384 1082.59 607.384ZM1082.59 604.088C1083.67 604.088 1084.53 603.757 1085.15 603.096C1085.76 602.435 1086.07 601.464 1086.07 600.184V597.08C1086.07 595.821 1085.76 594.861 1085.15 594.2C1084.53 593.539 1083.67 593.208 1082.59 593.208C1081.52 593.208 1080.68 593.539 1080.06 594.2C1079.44 594.861 1079.13 595.821 1079.13 597.08V600.184C1079.13 601.464 1079.44 602.435 1080.06 603.096C1080.68 603.757 1081.52 604.088 1082.59 604.088ZM1104.36 604.216H1104.2C1103.9 605.176 1103.34 605.944 1102.51 606.52C1101.67 607.096 1100.7 607.384 1099.59 607.384C1097.48 607.384 1095.86 606.627 1094.73 605.112C1093.62 603.597 1093.07 601.432 1093.07 598.616C1093.07 595.821 1093.62 593.677 1094.73 592.184C1095.86 590.669 1097.48 589.912 1099.59 589.912C1100.7 589.912 1101.67 590.2 1102.51 590.776C1103.34 591.331 1103.9 592.088 1104.2 593.048H1104.36V583.32H1108.46V607H1104.36V604.216ZM1100.91 603.992C1101.89 603.992 1102.71 603.757 1103.37 603.288C1104.03 602.819 1104.36 602.147 1104.36 601.272V595.96C1104.36 595.149 1104.03 594.499 1103.37 594.008C1102.71 593.517 1101.89 593.272 1100.91 593.272C1099.84 593.272 1098.97 593.635 1098.31 594.36C1097.67 595.064 1097.35 596.013 1097.35 597.208V600.088C1097.35 601.283 1097.67 602.232 1098.31 602.936C1098.97 603.64 1099.84 603.992 1100.91 603.992ZM1123.16 604.216H1123C1122.86 604.643 1122.65 605.048 1122.4 605.432C1122.16 605.795 1121.85 606.125 1121.47 606.424C1121.11 606.723 1120.66 606.957 1120.12 607.128C1119.61 607.299 1119.02 607.384 1118.33 607.384C1116.6 607.384 1115.28 606.819 1114.36 605.688C1113.45 604.557 1112.99 602.947 1112.99 600.856V590.296H1117.08V600.44C1117.08 601.592 1117.31 602.477 1117.76 603.096C1118.2 603.693 1118.92 603.992 1119.9 603.992C1120.31 603.992 1120.7 603.939 1121.08 603.832C1121.49 603.725 1121.84 603.565 1122.14 603.352C1122.44 603.117 1122.68 602.84 1122.88 602.52C1123.07 602.179 1123.16 601.784 1123.16 601.336V590.296H1127.26V607H1123.16V604.216ZM1138.59 607.384C1137.35 607.384 1136.25 607.181 1135.29 606.776C1134.33 606.371 1133.52 605.784 1132.86 605.016C1132.22 604.248 1131.73 603.331 1131.39 602.264C1131.04 601.176 1130.87 599.96 1130.87 598.616C1130.87 597.272 1131.04 596.067 1131.39 595C1131.73 593.933 1132.22 593.027 1132.86 592.28C1133.52 591.512 1134.33 590.925 1135.29 590.52C1136.25 590.115 1137.35 589.912 1138.59 589.912C1140.27 589.912 1141.66 590.285 1142.75 591.032C1143.85 591.779 1144.65 592.813 1145.15 594.136L1141.79 595.64C1141.59 594.936 1141.23 594.36 1140.7 593.912C1140.19 593.443 1139.48 593.208 1138.59 593.208C1137.43 593.208 1136.57 593.571 1135.99 594.296C1135.44 595.021 1135.16 595.971 1135.16 597.144V600.184C1135.16 601.357 1135.44 602.307 1135.99 603.032C1136.57 603.736 1137.43 604.088 1138.59 604.088C1139.57 604.088 1140.32 603.843 1140.86 603.352C1141.39 602.84 1141.81 602.211 1142.11 601.464L1145.24 602.968C1144.69 604.44 1143.84 605.549 1142.71 606.296C1141.58 607.021 1140.21 607.384 1138.59 607.384ZM1153.62 607C1152.21 607 1151.13 606.637 1150.38 605.912C1149.66 605.165 1149.3 604.109 1149.3 602.744V593.56H1146.83V590.296H1148.11C1148.73 590.296 1149.15 590.157 1149.36 589.88C1149.59 589.581 1149.71 589.144 1149.71 588.568V585.72H1153.39V590.296H1156.82V593.56H1153.39V603.736H1156.56V607H1153.62ZM1162.42 587.864C1161.56 587.864 1160.94 587.672 1160.56 587.288C1160.2 586.904 1160.02 586.413 1160.02 585.816V585.176C1160.02 584.579 1160.2 584.088 1160.56 583.704C1160.94 583.32 1161.56 583.128 1162.42 583.128C1163.25 583.128 1163.86 583.32 1164.24 583.704C1164.62 584.088 1164.82 584.579 1164.82 585.176V585.816C1164.82 586.413 1164.62 586.904 1164.24 587.288C1163.86 587.672 1163.25 587.864 1162.42 587.864ZM1160.37 590.296H1164.46V607H1160.37V590.296ZM1172.8 607L1167.23 590.296H1171.26L1173.6 597.496L1175.23 603.448H1175.45L1177.08 597.496L1179.36 590.296H1183.26L1177.66 607H1172.8ZM1188.04 587.864C1187.19 587.864 1186.57 587.672 1186.19 587.288C1185.82 586.904 1185.64 586.413 1185.64 585.816V585.176C1185.64 584.579 1185.82 584.088 1186.19 583.704C1186.57 583.32 1187.19 583.128 1188.04 583.128C1188.87 583.128 1189.48 583.32 1189.87 583.704C1190.25 584.088 1190.44 584.579 1190.44 585.176V585.816C1190.44 586.413 1190.25 586.904 1189.87 587.288C1189.48 587.672 1188.87 587.864 1188.04 587.864ZM1185.99 590.296H1190.09V607H1185.99V590.296ZM1200.05 607C1198.64 607 1197.57 606.637 1196.82 605.912C1196.1 605.165 1195.73 604.109 1195.73 602.744V593.56H1193.27V590.296H1194.55C1195.17 590.296 1195.58 590.157 1195.8 589.88C1196.03 589.581 1196.15 589.144 1196.15 588.568V585.72H1199.83V590.296H1203.25V593.56H1199.83V603.736H1203V607H1200.05ZM1217.05 590.296H1220.89L1214.17 609.976C1213.95 610.573 1213.71 611.085 1213.43 611.512C1213.17 611.96 1212.86 612.323 1212.5 612.6C1212.14 612.877 1211.7 613.08 1211.19 613.208C1210.68 613.336 1210.08 613.4 1209.4 613.4H1206.93V610.136H1209.94L1210.71 607.8L1204.73 590.296H1208.79L1211.7 599.128L1212.79 603.352H1212.98L1214.13 599.128L1217.05 590.296Z" fill="white"/>
<path d="M844.392 244.408V263H840.168V244.408H833.832V240.664H850.728V244.408H844.392ZM852.493 263V246.296H856.589V249.752H856.749C856.856 249.304 857.016 248.877 857.229 248.472C857.464 248.045 857.762 247.672 858.125 247.352C858.488 247.032 858.914 246.776 859.405 246.584C859.917 246.392 860.504 246.296 861.165 246.296H862.061V250.168H860.781C859.394 250.168 858.349 250.371 857.645 250.776C856.941 251.181 856.589 251.843 856.589 252.76V263H852.493ZM875.04 260.216H874.88C874.73 260.643 874.528 261.048 874.272 261.432C874.037 261.795 873.728 262.125 873.344 262.424C872.981 262.723 872.533 262.957 872 263.128C871.488 263.299 870.89 263.384 870.208 263.384C868.48 263.384 867.157 262.819 866.24 261.688C865.322 260.557 864.864 258.947 864.864 256.856V246.296H868.96V256.44C868.96 257.592 869.184 258.477 869.632 259.096C870.08 259.693 870.794 259.992 871.776 259.992C872.181 259.992 872.576 259.939 872.96 259.832C873.365 259.725 873.717 259.565 874.016 259.352C874.314 259.117 874.56 258.84 874.752 258.52C874.944 258.179 875.04 257.784 875.04 257.336V246.296H879.135V263H875.04V260.216ZM889.34 263.384C887.74 263.384 886.396 263.117 885.308 262.584C884.22 262.029 883.26 261.272 882.428 260.312L884.924 257.88C885.543 258.584 886.215 259.139 886.94 259.544C887.687 259.949 888.54 260.152 889.5 260.152C890.481 260.152 891.185 259.981 891.612 259.64C892.06 259.299 892.284 258.829 892.284 258.232C892.284 257.741 892.124 257.357 891.804 257.08C891.505 256.781 890.983 256.579 890.236 256.472L888.572 256.248C886.759 256.013 885.372 255.501 884.412 254.712C883.473 253.901 883.004 252.728 883.004 251.192C883.004 250.381 883.153 249.656 883.452 249.016C883.751 248.355 884.177 247.8 884.732 247.352C885.287 246.883 885.948 246.531 886.716 246.296C887.505 246.04 888.38 245.912 889.34 245.912C890.151 245.912 890.865 245.976 891.484 246.104C892.124 246.211 892.7 246.381 893.212 246.616C893.724 246.829 894.193 247.107 894.62 247.448C895.047 247.768 895.463 248.131 895.868 248.536L893.468 250.936C892.977 250.424 892.391 249.997 891.708 249.656C891.025 249.315 890.279 249.144 889.468 249.144C888.572 249.144 887.921 249.304 887.516 249.624C887.132 249.944 886.94 250.36 886.94 250.872C886.94 251.427 887.1 251.853 887.42 252.152C887.761 252.429 888.327 252.632 889.116 252.76L890.812 252.984C894.417 253.496 896.22 255.139 896.22 257.912C896.22 258.723 896.049 259.469 895.708 260.152C895.388 260.813 894.929 261.389 894.332 261.88C893.735 262.349 893.009 262.723 892.156 263C891.324 263.256 890.385 263.384 889.34 263.384ZM904.803 263C903.395 263 902.317 262.637 901.571 261.912C900.845 261.165 900.483 260.109 900.483 258.744V249.56H898.019V246.296H899.299C899.917 246.296 900.333 246.157 900.547 245.88C900.781 245.581 900.899 245.144 900.899 244.568V241.72H904.579V246.296H908.003V249.56H904.579V259.736H907.747V263H904.803ZM931.406 263C930.51 263 929.795 262.744 929.262 262.232C928.75 261.699 928.43 260.995 928.302 260.12H928.11C927.833 261.208 927.267 262.029 926.414 262.584C925.561 263.117 924.505 263.384 923.246 263.384C921.539 263.384 920.227 262.936 919.31 262.04C918.393 261.144 917.934 259.949 917.934 258.456C917.934 256.728 918.553 255.448 919.79 254.616C921.027 253.763 922.787 253.336 925.07 253.336H927.918V252.12C927.918 251.181 927.673 250.456 927.182 249.944C926.691 249.432 925.902 249.176 924.814 249.176C923.854 249.176 923.075 249.389 922.478 249.816C921.902 250.221 921.411 250.712 921.006 251.288L918.574 249.112C919.193 248.152 920.014 247.384 921.038 246.808C922.062 246.211 923.417 245.912 925.102 245.912C927.363 245.912 929.081 246.424 930.254 247.448C931.427 248.472 932.014 249.944 932.014 251.864V259.736H933.678V263H931.406ZM924.622 260.408C925.539 260.408 926.318 260.205 926.958 259.8C927.598 259.395 927.918 258.797 927.918 258.008V255.8H925.294C923.161 255.8 922.094 256.483 922.094 257.848V258.392C922.094 259.075 922.307 259.587 922.734 259.928C923.182 260.248 923.811 260.408 924.622 260.408ZM936.993 263V246.296H941.089V249.08H941.249C941.59 248.184 942.124 247.437 942.849 246.84C943.596 246.221 944.62 245.912 945.921 245.912C947.649 245.912 948.972 246.477 949.889 247.608C950.806 248.739 951.265 250.349 951.265 252.44V263H947.169V252.856C947.169 251.661 946.956 250.765 946.529 250.168C946.102 249.571 945.398 249.272 944.417 249.272C943.99 249.272 943.574 249.336 943.169 249.464C942.785 249.571 942.433 249.741 942.113 249.976C941.814 250.189 941.569 250.467 941.377 250.808C941.185 251.128 941.089 251.512 941.089 251.96V263H936.993ZM966.174 260.216H966.014C965.715 261.176 965.15 261.944 964.318 262.52C963.486 263.096 962.515 263.384 961.406 263.384C959.294 263.384 957.672 262.627 956.542 261.112C955.432 259.597 954.878 257.432 954.878 254.616C954.878 251.821 955.432 249.677 956.542 248.184C957.672 246.669 959.294 245.912 961.406 245.912C962.515 245.912 963.486 246.2 964.318 246.776C965.15 247.331 965.715 248.088 966.014 249.048H966.174V239.32H970.27V263H966.174V260.216ZM962.718 259.992C963.699 259.992 964.52 259.757 965.182 259.288C965.843 258.819 966.174 258.147 966.174 257.272V251.96C966.174 251.149 965.843 250.499 965.182 250.008C964.52 249.517 963.699 249.272 962.718 249.272C961.651 249.272 960.787 249.635 960.126 250.36C959.486 251.064 959.166 252.013 959.166 253.208V256.088C959.166 257.283 959.486 258.232 960.126 258.936C960.787 259.64 961.651 259.992 962.718 259.992ZM842.568 305.384C840.648 305.384 839.016 305.043 837.672 304.36C836.349 303.677 835.208 302.781 834.248 301.672L837.096 298.92C837.864 299.816 838.717 300.499 839.656 300.968C840.616 301.437 841.672 301.672 842.824 301.672C844.125 301.672 845.107 301.395 845.768 300.84C846.429 300.264 846.76 299.496 846.76 298.536C846.76 297.789 846.547 297.181 846.12 296.712C845.693 296.243 844.893 295.901 843.72 295.688L841.608 295.368C837.149 294.664 834.92 292.499 834.92 288.872C834.92 287.869 835.101 286.963 835.464 286.152C835.848 285.341 836.392 284.648 837.096 284.072C837.8 283.496 838.643 283.059 839.624 282.76C840.627 282.44 841.757 282.28 843.016 282.28C844.701 282.28 846.173 282.557 847.432 283.112C848.691 283.667 849.768 284.488 850.664 285.576L847.784 288.296C847.229 287.613 846.557 287.059 845.768 286.632C844.979 286.205 843.987 285.992 842.792 285.992C841.576 285.992 840.659 286.227 840.04 286.696C839.443 287.144 839.144 287.784 839.144 288.616C839.144 289.469 839.389 290.099 839.88 290.504C840.371 290.909 841.16 291.208 842.248 291.4L844.328 291.784C846.589 292.189 848.253 292.915 849.32 293.96C850.408 294.984 850.952 296.424 850.952 298.28C850.952 299.347 850.76 300.317 850.376 301.192C850.013 302.045 849.469 302.792 848.744 303.432C848.04 304.051 847.165 304.531 846.12 304.872C845.096 305.213 843.912 305.384 842.568 305.384ZM860.022 305C858.614 305 857.536 304.637 856.79 303.912C856.064 303.165 855.702 302.109 855.702 300.744V291.56H853.238V288.296H854.518C855.136 288.296 855.552 288.157 855.766 287.88C856 287.581 856.118 287.144 856.118 286.568V283.72H859.798V288.296H863.222V291.56H859.798V301.736H862.966V305H860.022ZM866.774 305V288.296H870.87V291.752H871.03C871.137 291.304 871.297 290.877 871.51 290.472C871.745 290.045 872.044 289.672 872.406 289.352C872.769 289.032 873.196 288.776 873.686 288.584C874.198 288.392 874.785 288.296 875.446 288.296H876.342V292.168H875.062C873.676 292.168 872.63 292.371 871.926 292.776C871.222 293.181 870.87 293.843 870.87 294.76V305H866.774ZM889.321 302.216H889.161C889.011 302.643 888.809 303.048 888.553 303.432C888.318 303.795 888.009 304.125 887.625 304.424C887.262 304.723 886.814 304.957 886.281 305.128C885.769 305.299 885.171 305.384 884.489 305.384C882.761 305.384 881.438 304.819 880.521 303.688C879.603 302.557 879.145 300.947 879.145 298.856V288.296H883.241V298.44C883.241 299.592 883.465 300.477 883.913 301.096C884.361 301.693 885.075 301.992 886.057 301.992C886.462 301.992 886.857 301.939 887.241 301.832C887.646 301.725 887.998 301.565 888.297 301.352C888.595 301.117 888.841 300.84 889.033 300.52C889.225 300.179 889.321 299.784 889.321 299.336V288.296H893.417V305H889.321V302.216ZM904.741 305.384C903.504 305.384 902.405 305.181 901.445 304.776C900.485 304.371 899.675 303.784 899.013 303.016C898.373 302.248 897.883 301.331 897.541 300.264C897.2 299.176 897.029 297.96 897.029 296.616C897.029 295.272 897.2 294.067 897.541 293C897.883 291.933 898.373 291.027 899.013 290.28C899.675 289.512 900.485 288.925 901.445 288.52C902.405 288.115 903.504 287.912 904.741 287.912C906.427 287.912 907.813 288.285 908.901 289.032C910.011 289.779 910.811 290.813 911.301 292.136L907.941 293.64C907.749 292.936 907.387 292.36 906.853 291.912C906.341 291.443 905.637 291.208 904.741 291.208C903.589 291.208 902.725 291.571 902.149 292.296C901.595 293.021 901.317 293.971 901.317 295.144V298.184C901.317 299.357 901.595 300.307 902.149 301.032C902.725 301.736 903.589 302.088 904.741 302.088C905.723 302.088 906.48 301.843 907.013 301.352C907.547 300.84 907.963 300.211 908.261 299.464L911.397 300.968C910.843 302.44 910 303.549 908.869 304.296C907.739 305.021 906.363 305.384 904.741 305.384ZM919.772 305C918.364 305 917.286 304.637 916.54 303.912C915.814 303.165 915.452 302.109 915.452 300.744V291.56H912.988V288.296H914.268C914.886 288.296 915.302 288.157 915.516 287.88C915.75 287.581 915.868 287.144 915.868 286.568V283.72H919.548V288.296H922.972V291.56H919.548V301.736H922.716V305H919.772ZM936.508 302.216H936.348C936.199 302.643 935.996 303.048 935.74 303.432C935.506 303.795 935.196 304.125 934.812 304.424C934.45 304.723 934.002 304.957 933.468 305.128C932.956 305.299 932.359 305.384 931.676 305.384C929.948 305.384 928.626 304.819 927.708 303.688C926.791 302.557 926.332 300.947 926.332 298.856V288.296H930.428V298.44C930.428 299.592 930.652 300.477 931.1 301.096C931.548 301.693 932.263 301.992 933.244 301.992C933.65 301.992 934.044 301.939 934.428 301.832C934.834 301.725 935.186 301.565 935.484 301.352C935.783 301.117 936.028 300.84 936.22 300.52C936.412 300.179 936.508 299.784 936.508 299.336V288.296H940.604V305H936.508V302.216ZM945.337 305V288.296H949.433V291.752H949.593C949.699 291.304 949.859 290.877 950.073 290.472C950.307 290.045 950.606 289.672 950.969 289.352C951.331 289.032 951.758 288.776 952.249 288.584C952.761 288.392 953.347 288.296 954.009 288.296H954.905V292.168H953.625C952.238 292.168 951.193 292.371 950.489 292.776C949.785 293.181 949.433 293.843 949.433 294.76V305H945.337ZM964.495 305.384C963.258 305.384 962.148 305.181 961.167 304.776C960.207 304.349 959.386 303.763 958.703 303.016C958.042 302.248 957.53 301.331 957.167 300.264C956.804 299.176 956.623 297.96 956.623 296.616C956.623 295.293 956.794 294.099 957.135 293.032C957.498 291.965 958.01 291.059 958.671 290.312C959.332 289.544 960.143 288.957 961.103 288.552C962.063 288.125 963.151 287.912 964.367 287.912C965.668 287.912 966.799 288.136 967.759 288.584C968.719 289.032 969.508 289.64 970.127 290.408C970.746 291.176 971.204 292.072 971.503 293.096C971.823 294.099 971.983 295.176 971.983 296.328V297.672H960.879V298.088C960.879 299.304 961.22 300.285 961.903 301.032C962.586 301.757 963.599 302.12 964.943 302.12C965.967 302.12 966.799 301.907 967.439 301.48C968.1 301.053 968.687 300.509 969.199 299.848L971.407 302.312C970.724 303.272 969.786 304.029 968.591 304.584C967.418 305.117 966.052 305.384 964.495 305.384ZM964.431 290.984C963.343 290.984 962.479 291.347 961.839 292.072C961.199 292.797 960.879 293.736 960.879 294.888V295.144H967.727V294.856C967.727 293.704 967.439 292.776 966.863 292.072C966.308 291.347 965.498 290.984 964.431 290.984Z" fill="white"/>
<path d="M390.296 263.384C388.824 263.384 387.491 263.149 386.296 262.68C385.123 262.189 384.109 261.464 383.256 260.504C382.424 259.544 381.784 258.36 381.336 256.952C380.888 255.523 380.664 253.869 380.664 251.992C380.664 250.115 380.888 248.451 381.336 247C381.784 245.528 382.424 244.301 383.256 243.32C384.109 242.317 385.123 241.56 386.296 241.048C387.491 240.536 388.824 240.28 390.296 240.28C392.301 240.28 393.965 240.707 395.288 241.56C396.611 242.413 397.667 243.704 398.456 245.432L394.84 247.352C394.52 246.349 393.997 245.549 393.272 244.952C392.547 244.333 391.555 244.024 390.296 244.024C388.717 244.024 387.459 244.557 386.52 245.624C385.603 246.691 385.144 248.184 385.144 250.104V253.624C385.144 255.565 385.603 257.059 386.52 258.104C387.459 259.128 388.717 259.64 390.296 259.64C391.555 259.64 392.579 259.299 393.368 258.616C394.179 257.933 394.765 257.091 395.128 256.088L398.552 258.104C397.741 259.768 396.664 261.069 395.32 262.008C393.976 262.925 392.301 263.384 390.296 263.384ZM408.523 263.384C407.329 263.384 406.251 263.181 405.291 262.776C404.353 262.371 403.542 261.784 402.859 261.016C402.198 260.248 401.686 259.331 401.323 258.264C400.961 257.176 400.779 255.96 400.779 254.616C400.779 253.272 400.961 252.067 401.323 251C401.686 249.933 402.198 249.027 402.859 248.28C403.542 247.512 404.353 246.925 405.291 246.52C406.251 246.115 407.329 245.912 408.523 245.912C409.718 245.912 410.795 246.115 411.755 246.52C412.715 246.925 413.526 247.512 414.187 248.28C414.87 249.027 415.393 249.933 415.755 251C416.118 252.067 416.299 253.272 416.299 254.616C416.299 255.96 416.118 257.176 415.755 258.264C415.393 259.331 414.87 260.248 414.187 261.016C413.526 261.784 412.715 262.371 411.755 262.776C410.795 263.181 409.718 263.384 408.523 263.384ZM408.523 260.088C409.611 260.088 410.465 259.757 411.083 259.096C411.702 258.435 412.011 257.464 412.011 256.184V253.08C412.011 251.821 411.702 250.861 411.083 250.2C410.465 249.539 409.611 249.208 408.523 249.208C407.457 249.208 406.614 249.539 405.995 250.2C405.377 250.861 405.067 251.821 405.067 253.08V256.184C405.067 257.464 405.377 258.435 405.995 259.096C406.614 259.757 407.457 260.088 408.523 260.088ZM429.915 260.216H429.755C429.605 260.643 429.403 261.048 429.147 261.432C428.912 261.795 428.603 262.125 428.219 262.424C427.856 262.723 427.408 262.957 426.875 263.128C426.363 263.299 425.765 263.384 425.083 263.384C423.355 263.384 422.032 262.819 421.115 261.688C420.197 260.557 419.739 258.947 419.739 256.856V246.296H423.835V256.44C423.835 257.592 424.059 258.477 424.507 259.096C424.955 259.693 425.669 259.992 426.651 259.992C427.056 259.992 427.451 259.939 427.835 259.832C428.24 259.725 428.592 259.565 428.891 259.352C429.189 259.117 429.435 258.84 429.627 258.52C429.819 258.179 429.915 257.784 429.915 257.336V246.296H434.01V263H429.915V260.216ZM438.743 263V246.296H442.839V249.08H442.999C443.34 248.184 443.874 247.437 444.599 246.84C445.346 246.221 446.37 245.912 447.671 245.912C449.399 245.912 450.722 246.477 451.639 247.608C452.556 248.739 453.015 250.349 453.015 252.44V263H448.919V252.856C448.919 251.661 448.706 250.765 448.279 250.168C447.852 249.571 447.148 249.272 446.167 249.272C445.74 249.272 445.324 249.336 444.919 249.464C444.535 249.571 444.183 249.741 443.863 249.976C443.564 250.189 443.319 250.467 443.127 250.808C442.935 251.128 442.839 251.512 442.839 251.96V263H438.743ZM462.772 263C461.364 263 460.286 262.637 459.54 261.912C458.814 261.165 458.452 260.109 458.452 258.744V249.56H455.988V246.296H457.268C457.886 246.296 458.302 246.157 458.516 245.88C458.75 245.581 458.868 245.144 458.868 244.568V241.72H462.548V246.296H465.972V249.56H462.548V259.736H465.716V263H462.772ZM476.151 263.384C474.914 263.384 473.805 263.181 472.823 262.776C471.863 262.349 471.042 261.763 470.359 261.016C469.698 260.248 469.186 259.331 468.823 258.264C468.461 257.176 468.279 255.96 468.279 254.616C468.279 253.293 468.45 252.099 468.791 251.032C469.154 249.965 469.666 249.059 470.327 248.312C470.989 247.544 471.799 246.957 472.759 246.552C473.719 246.125 474.807 245.912 476.023 245.912C477.325 245.912 478.455 246.136 479.415 246.584C480.375 247.032 481.165 247.64 481.783 248.408C482.402 249.176 482.861 250.072 483.159 251.096C483.479 252.099 483.639 253.176 483.639 254.328V255.672H472.535V256.088C472.535 257.304 472.877 258.285 473.559 259.032C474.242 259.757 475.255 260.12 476.599 260.12C477.623 260.12 478.455 259.907 479.095 259.48C479.757 259.053 480.343 258.509 480.855 257.848L483.063 260.312C482.381 261.272 481.442 262.029 480.247 262.584C479.074 263.117 477.709 263.384 476.151 263.384ZM476.087 248.984C474.999 248.984 474.135 249.347 473.495 250.072C472.855 250.797 472.535 251.736 472.535 252.888V253.144H479.383V252.856C479.383 251.704 479.095 250.776 478.519 250.072C477.965 249.347 477.154 248.984 476.087 248.984ZM487.243 263V246.296H491.339V249.752H491.499C491.606 249.304 491.766 248.877 491.979 248.472C492.214 248.045 492.512 247.672 492.875 247.352C493.238 247.032 493.664 246.776 494.155 246.584C494.667 246.392 495.254 246.296 495.915 246.296H496.811V250.168H495.531C494.144 250.168 493.099 250.371 492.395 250.776C491.691 251.181 491.339 251.843 491.339 252.76V263H487.243ZM499.106 255.288V251.224H508.258V255.288H499.106ZM523.174 260.216H523.014C522.715 261.176 522.15 261.944 521.318 262.52C520.486 263.096 519.515 263.384 518.406 263.384C516.294 263.384 514.672 262.627 513.542 261.112C512.432 259.597 511.878 257.432 511.878 254.616C511.878 251.821 512.432 249.677 513.542 248.184C514.672 246.669 516.294 245.912 518.406 245.912C519.515 245.912 520.486 246.2 521.318 246.776C522.15 247.331 522.715 248.088 523.014 249.048H523.174V239.32H527.27V263H523.174V260.216ZM519.718 259.992C520.699 259.992 521.52 259.757 522.182 259.288C522.843 258.819 523.174 258.147 523.174 257.272V251.96C523.174 251.149 522.843 250.499 522.182 250.008C521.52 249.517 520.699 249.272 519.718 249.272C518.651 249.272 517.787 249.635 517.126 250.36C516.486 251.064 516.166 252.013 516.166 253.208V256.088C516.166 257.283 516.486 258.232 517.126 258.936C517.787 259.64 518.651 259.992 519.718 259.992ZM538.745 263.384C537.508 263.384 536.398 263.181 535.417 262.776C534.457 262.349 533.636 261.763 532.953 261.016C532.292 260.248 531.78 259.331 531.417 258.264C531.054 257.176 530.873 255.96 530.873 254.616C530.873 253.293 531.044 252.099 531.385 251.032C531.748 249.965 532.26 249.059 532.921 248.312C533.582 247.544 534.393 246.957 535.353 246.552C536.313 246.125 537.401 245.912 538.617 245.912C539.918 245.912 541.049 246.136 542.009 246.584C542.969 247.032 543.758 247.64 544.377 248.408C544.996 249.176 545.454 250.072 545.753 251.096C546.073 252.099 546.233 253.176 546.233 254.328V255.672H535.129V256.088C535.129 257.304 535.47 258.285 536.153 259.032C536.836 259.757 537.849 260.12 539.193 260.12C540.217 260.12 541.049 259.907 541.689 259.48C542.35 259.053 542.937 258.509 543.449 257.848L545.657 260.312C544.974 261.272 544.036 262.029 542.841 262.584C541.668 263.117 540.302 263.384 538.745 263.384ZM538.681 248.984C537.593 248.984 536.729 249.347 536.089 250.072C535.449 250.797 535.129 251.736 535.129 252.888V253.144H541.977V252.856C541.977 251.704 541.689 250.776 541.113 250.072C540.558 249.347 539.748 248.984 538.681 248.984ZM549.837 246.296H553.933V249.048H554.061C554.359 248.088 554.925 247.331 555.757 246.776C556.589 246.2 557.559 245.912 558.669 245.912C560.802 245.912 562.423 246.669 563.533 248.184C564.663 249.677 565.229 251.821 565.229 254.616C565.229 257.432 564.663 259.597 563.533 261.112C562.423 262.627 560.802 263.384 558.669 263.384C557.559 263.384 556.589 263.096 555.757 262.52C554.946 261.944 554.381 261.176 554.061 260.216H553.933V269.4H549.837V246.296ZM557.357 259.992C558.423 259.992 559.287 259.64 559.949 258.936C560.61 258.232 560.941 257.283 560.941 256.088V253.208C560.941 252.013 560.61 251.064 559.949 250.36C559.287 249.635 558.423 249.272 557.357 249.272C556.375 249.272 555.554 249.517 554.893 250.008C554.253 250.499 553.933 251.149 553.933 251.96V257.272C553.933 258.147 554.253 258.819 554.893 259.288C555.554 259.757 556.375 259.992 557.357 259.992ZM575.776 263.384C574.539 263.384 573.43 263.181 572.448 262.776C571.488 262.349 570.667 261.763 569.984 261.016C569.323 260.248 568.811 259.331 568.448 258.264C568.086 257.176 567.904 255.96 567.904 254.616C567.904 253.293 568.075 252.099 568.416 251.032C568.779 249.965 569.291 249.059 569.952 248.312C570.614 247.544 571.424 246.957 572.384 246.552C573.344 246.125 574.432 245.912 575.648 245.912C576.95 245.912 578.08 246.136 579.04 246.584C580 247.032 580.79 247.64 581.408 248.408C582.027 249.176 582.486 250.072 582.784 251.096C583.104 252.099 583.264 253.176 583.264 254.328V255.672H572.16V256.088C572.16 257.304 572.502 258.285 573.184 259.032C573.867 259.757 574.88 260.12 576.224 260.12C577.248 260.12 578.08 259.907 578.72 259.48C579.382 259.053 579.968 258.509 580.48 257.848L582.688 260.312C582.006 261.272 581.067 262.029 579.872 262.584C578.699 263.117 577.334 263.384 575.776 263.384ZM575.712 248.984C574.624 248.984 573.76 249.347 573.12 250.072C572.48 250.797 572.16 251.736 572.16 252.888V253.144H579.008V252.856C579.008 251.704 578.72 250.776 578.144 250.072C577.59 249.347 576.779 248.984 575.712 248.984ZM586.868 263V246.296H590.964V249.08H591.124C591.465 248.184 591.999 247.437 592.724 246.84C593.471 246.221 594.495 245.912 595.796 245.912C597.524 245.912 598.847 246.477 599.764 247.608C600.681 248.739 601.14 250.349 601.14 252.44V263H597.044V252.856C597.044 251.661 596.831 250.765 596.404 250.168C595.977 249.571 595.273 249.272 594.292 249.272C593.865 249.272 593.449 249.336 593.044 249.464C592.66 249.571 592.308 249.741 591.988 249.976C591.689 250.189 591.444 250.467 591.252 250.808C591.06 251.128 590.964 251.512 590.964 251.96V263H586.868ZM616.049 260.216H615.889C615.59 261.176 615.025 261.944 614.193 262.52C613.361 263.096 612.39 263.384 611.281 263.384C609.169 263.384 607.547 262.627 606.417 261.112C605.307 259.597 604.753 257.432 604.753 254.616C604.753 251.821 605.307 249.677 606.417 248.184C607.547 246.669 609.169 245.912 611.281 245.912C612.39 245.912 613.361 246.2 614.193 246.776C615.025 247.331 615.59 248.088 615.889 249.048H616.049V239.32H620.145V263H616.049V260.216ZM612.593 259.992C613.574 259.992 614.395 259.757 615.057 259.288C615.718 258.819 616.049 258.147 616.049 257.272V251.96C616.049 251.149 615.718 250.499 615.057 250.008C614.395 249.517 613.574 249.272 612.593 249.272C611.526 249.272 610.662 249.635 610.001 250.36C609.361 251.064 609.041 252.013 609.041 253.208V256.088C609.041 257.283 609.361 258.232 610.001 258.936C610.662 259.64 611.526 259.992 612.593 259.992ZM631.62 263.384C630.383 263.384 629.273 263.181 628.292 262.776C627.332 262.349 626.511 261.763 625.828 261.016C625.167 260.248 624.655 259.331 624.292 258.264C623.929 257.176 623.748 255.96 623.748 254.616C623.748 253.293 623.919 252.099 624.26 251.032C624.623 249.965 625.135 249.059 625.796 248.312C626.457 247.544 627.268 246.957 628.228 246.552C629.188 246.125 630.276 245.912 631.492 245.912C632.793 245.912 633.924 246.136 634.884 246.584C635.844 247.032 636.633 247.64 637.252 248.408C637.871 249.176 638.329 250.072 638.628 251.096C638.948 252.099 639.108 253.176 639.108 254.328V255.672H628.004V256.088C628.004 257.304 628.345 258.285 629.028 259.032C629.711 259.757 630.724 260.12 632.068 260.12C633.092 260.12 633.924 259.907 634.564 259.48C635.225 259.053 635.812 258.509 636.324 257.848L638.532 260.312C637.849 261.272 636.911 262.029 635.716 262.584C634.543 263.117 633.177 263.384 631.62 263.384ZM631.556 248.984C630.468 248.984 629.604 249.347 628.964 250.072C628.324 250.797 628.004 251.736 628.004 252.888V253.144H634.852V252.856C634.852 251.704 634.564 250.776 633.988 250.072C633.433 249.347 632.623 248.984 631.556 248.984ZM642.712 263V246.296H646.808V249.08H646.968C647.309 248.184 647.842 247.437 648.568 246.84C649.314 246.221 650.338 245.912 651.64 245.912C653.368 245.912 654.69 246.477 655.608 247.608C656.525 248.739 656.984 250.349 656.984 252.44V263H652.888V252.856C652.888 251.661 652.674 250.765 652.248 250.168C651.821 249.571 651.117 249.272 650.136 249.272C649.709 249.272 649.293 249.336 648.888 249.464C648.504 249.571 648.152 249.741 647.832 249.976C647.533 250.189 647.288 250.467 647.096 250.808C646.904 251.128 646.808 251.512 646.808 251.96V263H642.712ZM668.116 263.384C666.879 263.384 665.78 263.181 664.82 262.776C663.86 262.371 663.05 261.784 662.388 261.016C661.748 260.248 661.258 259.331 660.916 258.264C660.575 257.176 660.404 255.96 660.404 254.616C660.404 253.272 660.575 252.067 660.916 251C661.258 249.933 661.748 249.027 662.388 248.28C663.05 247.512 663.86 246.925 664.82 246.52C665.78 246.115 666.879 245.912 668.116 245.912C669.802 245.912 671.188 246.285 672.276 247.032C673.386 247.779 674.186 248.813 674.676 250.136L671.316 251.64C671.124 250.936 670.762 250.36 670.228 249.912C669.716 249.443 669.012 249.208 668.116 249.208C666.964 249.208 666.1 249.571 665.524 250.296C664.97 251.021 664.692 251.971 664.692 253.144V256.184C664.692 257.357 664.97 258.307 665.524 259.032C666.1 259.736 666.964 260.088 668.116 260.088C669.098 260.088 669.855 259.843 670.388 259.352C670.922 258.84 671.338 258.211 671.636 257.464L674.772 258.968C674.218 260.44 673.375 261.549 672.244 262.296C671.114 263.021 669.738 263.384 668.116 263.384ZM688.171 246.296H692.01L685.291 265.976C685.077 266.573 684.832 267.085 684.555 267.512C684.299 267.96 683.989 268.323 683.627 268.6C683.264 268.877 682.827 269.08 682.315 269.208C681.803 269.336 681.205 269.4 680.523 269.4H678.059V266.136H681.067L681.835 263.8L675.851 246.296H679.915L682.827 255.128L683.915 259.352H684.107L685.259 255.128L688.171 246.296ZM393.656 305C392.76 305 392.045 304.744 391.512 304.232C391 303.699 390.68 302.995 390.552 302.12H390.36C390.083 303.208 389.517 304.029 388.664 304.584C387.811 305.117 386.755 305.384 385.496 305.384C383.789 305.384 382.477 304.936 381.56 304.04C380.643 303.144 380.184 301.949 380.184 300.456C380.184 298.728 380.803 297.448 382.04 296.616C383.277 295.763 385.037 295.336 387.32 295.336H390.168V294.12C390.168 293.181 389.923 292.456 389.432 291.944C388.941 291.432 388.152 291.176 387.064 291.176C386.104 291.176 385.325 291.389 384.728 291.816C384.152 292.221 383.661 292.712 383.256 293.288L380.824 291.112C381.443 290.152 382.264 289.384 383.288 288.808C384.312 288.211 385.667 287.912 387.352 287.912C389.613 287.912 391.331 288.424 392.504 289.448C393.677 290.472 394.264 291.944 394.264 293.864V301.736H395.928V305H393.656ZM386.872 302.408C387.789 302.408 388.568 302.205 389.208 301.8C389.848 301.395 390.168 300.797 390.168 300.008V297.8H387.544C385.411 297.8 384.344 298.483 384.344 299.848V300.392C384.344 301.075 384.557 301.587 384.984 301.928C385.432 302.248 386.061 302.408 386.872 302.408ZM399.243 305V288.296H403.339V291.08H403.499C403.84 290.184 404.374 289.437 405.099 288.84C405.846 288.221 406.87 287.912 408.171 287.912C409.899 287.912 411.222 288.477 412.139 289.608C413.056 290.739 413.515 292.349 413.515 294.44V305H409.419V294.856C409.419 293.661 409.206 292.765 408.779 292.168C408.352 291.571 407.648 291.272 406.667 291.272C406.24 291.272 405.824 291.336 405.419 291.464C405.035 291.571 404.683 291.741 404.363 291.976C404.064 292.189 403.819 292.467 403.627 292.808C403.435 293.128 403.339 293.512 403.339 293.96V305H399.243ZM428.424 302.216H428.264C427.965 303.176 427.4 303.944 426.568 304.52C425.736 305.096 424.765 305.384 423.656 305.384C421.544 305.384 419.922 304.627 418.792 303.112C417.682 301.597 417.128 299.432 417.128 296.616C417.128 293.821 417.682 291.677 418.792 290.184C419.922 288.669 421.544 287.912 423.656 287.912C424.765 287.912 425.736 288.2 426.568 288.776C427.4 289.331 427.965 290.088 428.264 291.048H428.424V281.32H432.52V305H428.424V302.216ZM424.968 301.992C425.949 301.992 426.77 301.757 427.432 301.288C428.093 300.819 428.424 300.147 428.424 299.272V293.96C428.424 293.149 428.093 292.499 427.432 292.008C426.77 291.517 425.949 291.272 424.968 291.272C423.901 291.272 423.037 291.635 422.376 292.36C421.736 293.064 421.416 294.013 421.416 295.208V298.088C421.416 299.283 421.736 300.232 422.376 300.936C423.037 301.64 423.901 301.992 424.968 301.992ZM445.062 305V282.664H459.43V286.408H449.286V291.816H458.118V295.56H449.286V305H445.062ZM465.322 285.864C464.469 285.864 463.85 285.672 463.466 285.288C463.104 284.904 462.922 284.413 462.922 283.816V283.176C462.922 282.579 463.104 282.088 463.466 281.704C463.85 281.32 464.469 281.128 465.322 281.128C466.154 281.128 466.762 281.32 467.146 281.704C467.53 282.088 467.722 282.579 467.722 283.176V283.816C467.722 284.413 467.53 284.904 467.146 285.288C466.762 285.672 466.154 285.864 465.322 285.864ZM463.274 288.296H467.37V305H463.274V288.296ZM487.19 306.408C487.19 307.283 487.03 308.051 486.71 308.712C486.411 309.395 485.91 309.96 485.206 310.408C484.502 310.856 483.595 311.197 482.486 311.432C481.377 311.667 480.022 311.784 478.422 311.784C477.014 311.784 475.819 311.688 474.838 311.496C473.857 311.325 473.046 311.069 472.406 310.728C471.787 310.408 471.339 310.003 471.062 309.512C470.785 309.021 470.646 308.467 470.646 307.848C470.646 306.909 470.902 306.173 471.414 305.64C471.947 305.128 472.683 304.797 473.622 304.648V304.296C472.939 304.125 472.406 303.795 472.022 303.304C471.659 302.792 471.478 302.195 471.478 301.512C471.478 301.085 471.563 300.712 471.734 300.392C471.905 300.051 472.129 299.763 472.406 299.528C472.705 299.293 473.035 299.101 473.398 298.952C473.761 298.781 474.145 298.653 474.55 298.568V298.44C473.526 297.971 472.758 297.32 472.246 296.488C471.755 295.656 471.51 294.685 471.51 293.576C471.51 291.869 472.097 290.504 473.27 289.48C474.443 288.435 476.161 287.912 478.422 287.912C478.934 287.912 479.435 287.944 479.926 288.008C480.438 288.072 480.907 288.179 481.334 288.328V287.784C481.334 286.163 482.123 285.352 483.702 285.352H486.294V288.488H482.742V288.936C483.617 289.427 484.267 290.067 484.694 290.856C485.121 291.645 485.334 292.552 485.334 293.576C485.334 295.261 484.747 296.616 483.574 297.64C482.422 298.664 480.705 299.176 478.422 299.176C477.441 299.176 476.587 299.08 475.862 298.888C475.542 299.037 475.265 299.24 475.03 299.496C474.795 299.731 474.678 300.029 474.678 300.392C474.678 301.224 475.403 301.64 476.854 301.64H481.334C483.382 301.64 484.865 302.067 485.782 302.92C486.721 303.752 487.19 304.915 487.19 306.408ZM483.35 306.888C483.35 306.355 483.137 305.939 482.71 305.64C482.283 305.341 481.547 305.192 480.502 305.192H474.806C474.23 305.619 473.942 306.195 473.942 306.92C473.942 307.56 474.209 308.061 474.742 308.424C475.275 308.787 476.182 308.968 477.462 308.968H479.51C480.854 308.968 481.825 308.797 482.422 308.456C483.041 308.115 483.35 307.592 483.35 306.888ZM478.422 296.392C480.427 296.392 481.43 295.539 481.43 293.832V293.288C481.43 291.581 480.427 290.728 478.422 290.728C476.417 290.728 475.414 291.581 475.414 293.288V293.832C475.414 295.539 476.417 296.392 478.422 296.392ZM494.772 305C493.364 305 492.286 304.637 491.54 303.912C490.814 303.165 490.452 302.109 490.452 300.744V291.56H487.988V288.296H489.268C489.886 288.296 490.302 288.157 490.516 287.88C490.75 287.581 490.868 287.144 490.868 286.568V283.72H494.548V288.296H497.972V291.56H494.548V301.736H497.716V305H494.772ZM501.524 281.32H505.62V291.08H505.78C506.122 290.184 506.655 289.437 507.38 288.84C508.127 288.221 509.151 287.912 510.452 287.912C512.18 287.912 513.503 288.477 514.42 289.608C515.338 290.739 515.796 292.349 515.796 294.44V305H511.7V294.856C511.7 293.661 511.487 292.765 511.06 292.168C510.634 291.571 509.93 291.272 508.948 291.272C508.522 291.272 508.106 291.336 507.7 291.464C507.316 291.571 506.964 291.741 506.644 291.976C506.346 292.189 506.1 292.467 505.908 292.808C505.716 293.128 505.62 293.512 505.62 293.96V305H501.524V281.32ZM522.385 285.864C521.531 285.864 520.913 285.672 520.529 285.288C520.166 284.904 519.985 284.413 519.985 283.816V283.176C519.985 282.579 520.166 282.088 520.529 281.704C520.913 281.32 521.531 281.128 522.385 281.128C523.217 281.128 523.825 281.32 524.209 281.704C524.593 282.088 524.785 282.579 524.785 283.176V283.816C524.785 284.413 524.593 284.904 524.209 285.288C523.825 285.672 523.217 285.864 522.385 285.864ZM520.337 288.296H524.433V305H520.337V288.296ZM529.181 305V288.296H533.277V291.08H533.437C533.778 290.184 534.311 289.437 535.036 288.84C535.783 288.221 536.807 287.912 538.109 287.912C539.837 287.912 541.159 288.477 542.077 289.608C542.994 290.739 543.453 292.349 543.453 294.44V305H539.357V294.856C539.357 293.661 539.143 292.765 538.717 292.168C538.29 291.571 537.586 291.272 536.605 291.272C536.178 291.272 535.762 291.336 535.357 291.464C534.973 291.571 534.621 291.741 534.301 291.976C534.002 292.189 533.757 292.467 533.565 292.808C533.373 293.128 533.277 293.512 533.277 293.96V305H529.181ZM563.065 306.408C563.065 307.283 562.905 308.051 562.585 308.712C562.286 309.395 561.785 309.96 561.081 310.408C560.377 310.856 559.47 311.197 558.361 311.432C557.252 311.667 555.897 311.784 554.297 311.784C552.889 311.784 551.694 311.688 550.713 311.496C549.732 311.325 548.921 311.069 548.281 310.728C547.662 310.408 547.214 310.003 546.937 309.512C546.66 309.021 546.521 308.467 546.521 307.848C546.521 306.909 546.777 306.173 547.289 305.64C547.822 305.128 548.558 304.797 549.497 304.648V304.296C548.814 304.125 548.281 303.795 547.897 303.304C547.534 302.792 547.353 302.195 547.353 301.512C547.353 301.085 547.438 300.712 547.609 300.392C547.78 300.051 548.004 299.763 548.281 299.528C548.58 299.293 548.91 299.101 549.273 298.952C549.636 298.781 550.02 298.653 550.425 298.568V298.44C549.401 297.971 548.633 297.32 548.121 296.488C547.63 295.656 547.385 294.685 547.385 293.576C547.385 291.869 547.972 290.504 549.145 289.48C550.318 288.435 552.036 287.912 554.297 287.912C554.809 287.912 555.31 287.944 555.801 288.008C556.313 288.072 556.782 288.179 557.209 288.328V287.784C557.209 286.163 557.998 285.352 559.577 285.352H562.169V288.488H558.617V288.936C559.492 289.427 560.142 290.067 560.569 290.856C560.996 291.645 561.209 292.552 561.209 293.576C561.209 295.261 560.622 296.616 559.449 297.64C558.297 298.664 556.58 299.176 554.297 299.176C553.316 299.176 552.462 299.08 551.737 298.888C551.417 299.037 551.14 299.24 550.905 299.496C550.67 299.731 550.553 300.029 550.553 300.392C550.553 301.224 551.278 301.64 552.729 301.64H557.209C559.257 301.64 560.74 302.067 561.657 302.92C562.596 303.752 563.065 304.915 563.065 306.408ZM559.225 306.888C559.225 306.355 559.012 305.939 558.585 305.64C558.158 305.341 557.422 305.192 556.377 305.192H550.681C550.105 305.619 549.817 306.195 549.817 306.92C549.817 307.56 550.084 308.061 550.617 308.424C551.15 308.787 552.057 308.968 553.337 308.968H555.385C556.729 308.968 557.7 308.797 558.297 308.456C558.916 308.115 559.225 307.592 559.225 306.888ZM554.297 296.392C556.302 296.392 557.305 295.539 557.305 293.832V293.288C557.305 291.581 556.302 290.728 554.297 290.728C552.292 290.728 551.289 291.581 551.289 293.288V293.832C551.289 295.539 552.292 296.392 554.297 296.392Z" fill="white"/>
</svg>
